<?xml version="1.0" standalone="no"?>
<!DOCTYPE svg PUBLIC "-//W3C//DTD SVG 20010904//EN"
 "http://www.w3.org/TR/2001/REC-SVG-20010904/DTD/svg10.dtd">
<svg version="1.0" xmlns="http://www.w3.org/2000/svg"
 width="1080.000000pt" height="1080.000000pt" viewBox="0 0 1080.000000 1080.000000"
 preserveAspectRatio="xMidYMid meet">
<metadata>
Created by potrace 1.11, written by Peter Selinger 2001-2013
</metadata>
<g transform="translate(0.000000,1080.000000) scale(0.100000,-0.100000)"
fill="#000000" stroke="none">
<path d="M0 5400 l0 -5400 5400 0 5400 0 0 5400 0 5400 -5400 0 -5400 0 0
-5400z m6636 4321 c569 -61 1056 -188 1529 -398 44 -20 82 -37 84 -39 3 -3
-220 -517 -234 -541 -1 -2 -64 26 -141 61 -816 371 -1695 490 -2559 345 -949
-159 -1713 -682 -2194 -1503 -420 -717 -603 -1702 -520 -2806 103 -1384 638
-2378 1574 -2926 331 -193 763 -329 1245 -390 172 -21 733 -30 983 -15 520 32
995 109 1422 232 39 11 78 23 88 25 16 5 17 -10 15 -262 l-3 -267 -40 -14
c-112 -39 -368 -107 -538 -142 -437 -90 -972 -140 -1502 -141 -1229 -1 -2167
377 -2867 1155 -625 693 -966 1624 -1039 2833 -15 251 -6 843 16 1047 79 746
267 1360 586 1915 601 1048 1651 1704 2936 1835 226 23 234 23 613 20 273 -3
399 -8 546 -24z"/>
</g>
</svg>
